<?xml version="1.0" standalone="no"?>
<!DOCTYPE svg PUBLIC "-//W3C//DTD SVG 20010904//EN"
 "http://www.w3.org/TR/2001/REC-SVG-20010904/DTD/svg10.dtd">
<svg version="1.0" xmlns="http://www.w3.org/2000/svg"
 width="300.000000pt" height="314.000000pt" viewBox="0 0 300.000000 314.000000"
 preserveAspectRatio="xMidYMid meet">
<metadata>
Created by potrace 1.10, written by Peter Selinger 2001-2011
</metadata>
<g transform="translate(0.000000,314.000000) scale(0.100000,-0.100000)"
fill="#000000" stroke="none">
<path d="M1238 2730 c-174 -37 -208 -54 -208 -106 0 -34 1 -36 28 -29 79 20
162 35 198 35 45 0 54 10 54 61 0 29 1 29 58 29 l58 0 -4 -39 -4 -39 154 0
c150 0 350 -24 422 -52 42 -16 46 -13 46 34 0 42 -1 44 -47 64 -27 11 -63 23
-81 27 -176 37 -531 45 -674 15z m306 -23 c6 7 69 5 156 -3 25 -3 66 -6 92 -7
27 -1 48 -4 48 -7 0 -3 8 -6 18 -7 9 -1 26 -4 37 -6 11 -3 25 -6 31 -6 5 -1
19 -7 29 -15 18 -13 17 -14 -15 -10 -70 8 -176 23 -200 29 -14 3 -80 6 -147 6
-95 1 -123 4 -123 14 0 18 20 24 46 14 12 -4 25 -5 28 -2z m-294 -32 c-5 -6
-24 -11 -42 -10 -18 1 -35 -1 -38 -5 -3 -4 -14 -4 -25 0 -15 6 -9 9 28 15 26
4 50 11 52 16 3 4 12 6 21 2 10 -4 12 -9 4 -18z"/>
<path d="M2104 2658 c3 -13 6 -41 6 -64 0 -39 3 -42 69 -88 142 -96 276 -263
357 -444 69 -153 89 -256 89 -452 0 -140 -4 -177 -23 -245 -92 -329 -293 -579
-574 -713 l-97 -47 -1 -57 0 -57 78 35 c167 76 260 139 374 255 148 152 258
349 314 565 26 97 29 125 28 264 0 222 -30 353 -126 549 -103 209 -252 372
-447 490 -52 32 -54 32 -47 9z m146 -124 c88 -68 221 -220 260 -296 12 -24 34
-67 50 -97 16 -30 27 -58 24 -63 -3 -4 -1 -8 5 -8 5 0 17 -21 26 -47 10 -27
21 -57 25 -68 13 -31 21 -103 13 -108 -5 -3 -9 10 -10 27 -2 18 -10 49 -18 69
-8 20 -15 38 -14 39 1 6 -15 44 -25 57 -5 7 -11 19 -12 26 -3 24 -85 179 -100
191 -8 6 -14 16 -14 21 0 5 -9 18 -21 29 -12 10 -28 31 -35 47 -8 15 -19 25
-24 22 -6 -4 -10 -1 -10 5 0 20 -116 128 -183 169 -20 12 -35 27 -32 31 8 14
34 1 95 -46z m437 -991 c-3 -43 -8 -89 -12 -103 -4 -14 -8 -40 -10 -58 -1 -18
-7 -38 -14 -45 -6 -6 -11 -21 -11 -34 0 -42 -113 -291 -144 -318 -7 -5 -24
-30 -38 -55 -15 -25 -56 -75 -93 -112 -64 -66 -206 -178 -224 -178 -5 0 -11
-5 -13 -11 -2 -5 -10 -11 -18 -12 -8 -2 -27 -11 -42 -21 -29 -19 -102 -31 -93
-15 4 5 20 9 36 9 17 0 28 4 25 9 -3 4 12 16 34 26 22 10 40 22 40 27 0 4 6 8
13 8 16 0 137 90 193 142 21 21 42 38 47 38 4 0 7 4 7 10 0 5 14 23 30 40 17
18 27 36 24 43 -4 7 -4 9 1 5 4 -4 21 11 37 34 41 55 89 138 81 138 -3 0 0 8
9 18 12 14 37 61 43 82 1 3 4 12 7 20 3 8 12 35 19 59 7 24 19 50 27 57 9 10
10 14 2 14 -7 0 -9 7 -6 17 4 9 9 32 12 52 3 20 11 39 16 42 7 4 7 9 0 13 -6
4 -7 17 -3 34 4 15 6 44 5 65 -1 20 2 37 8 37 6 0 8 -28 5 -77z"/>
<path d="M864 2611 c-324 -220 -524 -604 -524 -1006 0 -360 192 -728 495 -953
57 -42 269 -152 294 -152 7 0 11 20 11 53 l0 54 -66 28 c-228 97 -417 289
-538 546 -66 141 -86 222 -93 375 -13 310 85 589 284 805 62 66 190 174 220
183 15 5 18 17 18 66 0 33 -3 60 -7 60 -4 0 -46 -27 -94 -59z m46 -30 c0 -5
-12 -18 -27 -30 -16 -12 -55 -42 -88 -67 -33 -25 -67 -56 -75 -68 -8 -13 -22
-30 -30 -38 -31 -31 -70 -78 -70 -84 0 -3 -15 -27 -32 -52 -18 -26 -34 -49
-35 -51 -2 -2 -5 -2 -8 1 -8 8 11 53 21 51 5 -1 8 5 6 13 -2 8 4 14 13 14 9 0
14 4 11 9 -3 4 3 16 14 26 11 10 20 24 20 31 0 15 134 154 149 154 6 0 11 4
11 10 0 9 99 88 113 89 4 1 7 -3 7 -8z m-370 -404 c0 -7 -13 -37 -29 -67 -15
-30 -34 -76 -42 -102 -7 -27 -16 -48 -20 -48 -3 0 -6 -6 -7 -12 -1 -7 -3 -26
-4 -43 -2 -16 -7 -36 -11 -43 -5 -7 -10 -35 -13 -63 -2 -28 -8 -58 -14 -67 -7
-12 -9 -2 -6 38 3 30 6 56 7 58 1 1 3 7 4 12 1 6 3 11 5 13 1 1 3 11 4 22 6
42 51 200 58 206 14 9 48 82 48 102 0 10 5 15 10 12 6 -3 10 -12 10 -18z
m-140 -544 c3 -153 5 -193 11 -193 4 0 6 -18 5 -40 -1 -22 2 -40 7 -40 5 0 7
-9 4 -20 -3 -11 -2 -20 2 -20 8 0 33 -73 31 -86 -1 -4 2 -10 7 -13 8 -5 64
-115 67 -131 1 -3 27 -44 58 -92 50 -74 182 -220 244 -268 49 -38 170 -110
203 -121 37 -12 53 -27 45 -41 -4 -7 -120 48 -179 85 -68 42 -168 131 -255
227 -28 30 -80 108 -80 119 0 6 -4 11 -8 11 -8 0 -81 139 -103 195 -5 11 -15
37 -23 58 -8 20 -12 37 -9 37 3 0 0 7 -7 15 -6 8 -9 19 -6 24 4 5 1 13 -5 16
-5 4 -8 13 -5 21 3 8 1 14 -5 14 -6 0 -8 4 -5 9 3 5 1 31 -5 57 -11 51 -13
229 -3 245 11 18 13 8 14 -68z"/>
<path d="M1437 2604 c-4 -4 -68 -8 -144 -9 -170 -3 -256 -25 -261 -66 l-3 -26
73 20 c108 28 469 45 636 29 112 -10 208 -27 280 -48 19 -5 22 -3 22 19 0 22
-7 28 -55 42 -92 26 -253 45 -401 45 -77 0 -144 -3 -147 -6z"/>
<path d="M1418 2505 c-2 -3 -58 -7 -124 -9 -66 -2 -151 -12 -191 -21 -66 -17
-73 -21 -73 -43 0 -19 4 -23 18 -17 71 28 343 48 572 41 180 -5 255 -13 388
-41 29 -7 32 -5 32 17 0 23 -6 26 -90 42 -49 9 -129 21 -177 26 -92 10 -346
13 -355 5z"/>
<path d="M2110 2416 l0 -75 51 -48 c203 -189 309 -482 278 -762 -14 -129 -34
-195 -94 -317 -87 -175 -200 -296 -357 -379 l-63 -34 0 -70 c0 -39 1 -71 3
-71 1 0 42 20 91 44 157 79 282 195 389 359 238 368 220 827 -48 1192 -48 64
-144 161 -203 203 l-47 33 0 -75z m123 -73 c74 -73 210 -273 223 -328 2 -5 14
-41 29 -80 14 -38 28 -88 31 -110 3 -22 9 -64 14 -94 6 -29 7 -57 5 -62 -6 -8
-45 -8 -46 1 -6 61 -38 220 -47 234 -3 6 -7 16 -8 21 -3 19 -47 130 -53 135
-3 3 -19 30 -35 60 -33 63 -56 92 -130 170 -76 79 -86 103 -46 109 3 1 31 -25
63 -56z m296 -731 c11 -20 -2 -42 -25 -42 -18 0 -26 30 -13 46 16 19 26 18 38
-4z m-2 -137 c-2 -33 -16 -96 -32 -140 -31 -91 -101 -236 -118 -247 -7 -4 -8
-8 -4 -8 9 0 -62 -92 -116 -150 -51 -57 -156 -139 -211 -167 -28 -14 -53 -30
-54 -34 -7 -17 -22 2 -22 27 0 18 9 29 35 41 19 9 35 20 35 25 0 4 5 8 12 8
11 0 93 59 133 96 77 71 187 231 223 324 31 81 54 159 63 214 12 72 14 75 40
73 18 -1 20 -7 16 -62z"/>
<path d="M900 2446 c-232 -170 -378 -453 -405 -783 -23 -294 137 -647 384
-845 74 -59 224 -148 250 -148 7 0 11 25 11 70 0 39 -4 70 -9 70 -6 0 -37 16
-71 36 -182 107 -320 286 -397 515 -26 79 -28 94 -28 254 0 131 4 185 18 236
44 167 119 301 229 414 l78 79 0 68 c0 38 -3 68 -7 68 -5 0 -28 -15 -53 -34z
m20 -67 c0 -12 -25 -45 -58 -78 -32 -32 -68 -74 -81 -94 -13 -21 -28 -43 -34
-50 -12 -13 -24 -33 -44 -72 -6 -11 -18 -35 -27 -53 -10 -17 -14 -37 -10 -44
4 -6 3 -8 -3 -5 -15 9 -55 -134 -68 -245 -7 -61 -14 -78 -30 -78 -37 0 -35 82
5 220 11 41 23 82 25 91 7 33 109 215 144 258 54 67 158 171 170 171 6 0 11
-9 11 -21z m-334 -794 c-3 -9 -14 -15 -23 -13 -22 4 -30 38 -11 49 18 11 43
-15 34 -36z m5 -71 c2 -15 5 -33 8 -36 1 -2 4 -19 6 -39 4 -41 34 -132 64
-199 23 -51 80 -152 90 -160 3 -3 19 -23 35 -45 63 -86 184 -192 270 -235 32
-16 41 -32 32 -55 -5 -13 -16 -10 -66 17 -34 18 -68 39 -78 48 -9 8 -33 27
-53 42 -49 37 -108 95 -144 143 -43 58 -75 105 -75 112 0 3 -11 20 -24 37 -13
17 -27 42 -31 56 -4 14 -14 41 -22 60 -57 133 -81 253 -54 270 18 10 41 2 42
-16z"/>
<path d="M1310 2409 c-74 -5 -168 -15 -207 -24 -67 -15 -73 -18 -73 -42 0 -20
4 -24 18 -18 122 49 718 59 902 15 94 -22 90 -22 90 4 0 22 -6 25 -87 41 -163
31 -387 39 -643 24z"/>
<path d="M1240 2315 c-194 -23 -204 -25 -208 -58 -3 -25 -1 -26 21 -18 137 52
716 57 930 7 57 -13 57 -13 57 10 0 13 -7 25 -17 28 -126 39 -563 56 -783 31z"/>
<path d="M1255 2230 c-38 -5 -105 -14 -147 -21 -73 -11 -78 -13 -78 -36 0 -21
3 -24 23 -19 190 54 741 57 926 6 53 -14 61 -13 61 14 0 22 -6 24 -107 41
-121 21 -555 30 -678 15z"/>
<path d="M1325 2148 c-55 -4 -144 -15 -197 -24 l-98 -17 0 -296 0 -296 59 3
60 4 7 46 c13 88 58 139 141 161 58 16 309 22 406 10 129 -15 188 -61 209
-161 l12 -58 42 0 c23 0 49 -3 58 -6 14 -6 16 24 16 293 l0 299 -97 18 c-88
16 -147 20 -433 29 -47 2 -130 -1 -185 -5z m45 -188 c0 -93 0 -173 0 -177 0
-4 -16 -9 -36 -11 -31 -3 -36 -1 -30 13 3 9 6 91 6 181 l0 164 30 0 30 0 0
-170z m441 146 c31 -2 60 -6 65 -8 9 -6 105 -22 115 -20 8 1 7 10 9 -254 0
-127 -2 -239 -6 -248 -11 -29 -36 -13 -49 30 -23 78 -104 154 -164 154 -11 0
-23 5 -26 11 -4 6 -21 10 -39 9 -17 -1 -51 -2 -75 -1 l-44 1 47 46 c77 78 85
167 20 242 -19 22 -34 42 -34 45 0 4 57 2 181 -7z m-543 -179 c2 -167 2 -167
-21 -176 -43 -17 -87 -63 -112 -117 -14 -30 -25 -59 -25 -64 0 -15 -27 -12
-33 3 -3 8 -6 120 -6 249 -1 193 1 237 13 247 18 15 91 30 141 28 l40 -2 3
-168z m364 123 c33 -36 38 -47 38 -88 0 -59 -26 -103 -73 -125 -43 -21 -67
-21 -112 -3 -70 30 -98 133 -55 204 24 39 49 51 114 51 45 1 53 -3 88 -39z
m-176 -244 c20 -21 17 -28 -8 -24 -13 2 -24 11 -26 21 -4 21 14 22 34 3z"/>
<path d="M1520 2043 c-8 -3 -25 -15 -37 -26 -50 -45 -12 -137 56 -137 35 0 81
48 81 85 0 44 -61 92 -100 78z m50 -64 c9 -16 8 -25 -6 -40 -9 -10 -23 -19
-29 -19 -22 0 -38 29 -31 55 8 32 50 35 66 4z"/>
<path d="M1337 1681 c-21 -4 -48 -13 -60 -20 -22 -12 -70 -72 -63 -78 2 -2 23
1 47 6 24 6 62 13 84 15 22 2 48 7 58 11 16 7 17 -6 17 -197 0 -214 -9 -298
-40 -359 -21 -40 -59 -69 -91 -69 -22 0 -22 -2 -16 -101 5 -73 3 -110 -7 -133
-7 -17 -12 -47 -10 -66 1 -19 6 -92 10 -161 l7 -126 37 9 c29 8 52 5 105 -11
86 -27 164 -27 240 0 36 13 74 19 95 16 l35 -4 1 71 c1 77 13 156 24 156 3 0
3 -24 -1 -52 -14 -97 -11 -175 7 -182 45 -17 44 -23 44 289 l0 295 -31 0 c-30
0 -30 -1 -29 -47 4 -109 0 -157 -11 -146 -13 13 -14 37 -6 126 6 55 5 67 -8
67 -8 0 -30 14 -50 31 -57 50 -67 100 -72 356 -3 123 -3 230 1 238 4 11 11 13
23 6 33 -16 173 -38 173 -27 -1 19 -34 53 -70 72 -30 16 -62 19 -220 21 -102
1 -202 -2 -223 -6z m288 -58 c-13 -47 -15 -82 -15 -281 0 -208 8 -264 46 -329
22 -39 36 -47 70 -42 13 2 24 -27 24 -63 0 -21 -4 -38 -8 -38 -4 0 -23 13 -42
30 -19 16 -42 29 -50 30 -9 0 -21 5 -28 12 -6 6 -43 11 -87 11 -47 0 -75 4
-75 11 1 17 24 41 40 41 8 0 13 7 11 15 -15 55 -20 145 -20 363 l-1 247 26 0
25 0 -3 -310 c-2 -171 0 -310 5 -310 4 0 7 5 7 10 0 23 37 7 57 -25 24 -36 63
-64 63 -45 0 6 -11 26 -24 43 -45 60 -55 116 -61 347 -2 118 -5 229 -5 247 1
17 -4 34 -10 38 -18 11 0 25 32 25 28 0 30 -2 23 -27z m-150 -502 c-8 -57 -41
-134 -66 -157 -10 -9 -19 -22 -19 -28 0 -7 -20 -32 -45 -56 -41 -40 -65 -48
-31 -11 36 41 146 257 146 289 0 14 4 21 11 16 7 -4 8 -23 4 -53z m161 -229
c79 -41 127 -116 128 -202 1 -108 -75 -204 -183 -230 -64 -15 -144 6 -198 53
-126 111 -82 333 79 394 44 17 126 9 174 -15z m-280 -430 c-31 -6 -46 6 -46
39 l0 31 31 -33 c26 -28 29 -35 15 -37z m388 22 c9 -22 2 -27 -24 -19 -17 5
-19 10 -9 21 15 18 25 18 33 -2z"/>
<path d="M1465 853 c-109 -57 -144 -177 -80 -274 39 -60 131 -92 200 -69 47
16 104 66 121 107 60 143 -107 307 -241 236z m150 -53 c48 -29 72 -96 56 -150
-31 -106 -160 -140 -233 -63 -54 58 -61 102 -26 164 42 75 127 96 203 49z"/>
<path d="M1210 695 c0 -274 1 -295 18 -295 16 0 17 21 17 295 0 274 -1 295
-17 295 -17 0 -18 -21 -18 -295z"/>
</g>
</svg>
